<svg version="1.1" xmlns="http://www.w3.org/2000/svg" viewBox="0 0 250 250"><desc>Created with Snap</desc><defs></defs><g transform="matrix(0.04,0,0,0.04,11.6822,84.4554)"><rect x="-291.8399993896484" y="-1106.9440185546875" width="6245.3765625" height="4239.6161285400385" fill="#85421e" style=""></rect><g transform="matrix(3.5161,0,0,3.5161,1600.2026,446.4582)"><g><path d="M198.5,26.7c-12,16.2-26.1,47.4-31.5,69.7c-2.3,9.5-4.8,30-4.8,38.9c0,16.1,3.9,46.5,6.2,49c0.4,0.4,6.6,1.5,13.8,2.2   c48.8,5.3,102.2,29,114.2,50.9c2.8,5,3.1,6.4,3.1,15.4c0,10.5-1.5,16.5-6.5,26.9c-3.2,6.7-11,13.4-21.6,18.7   c-6.5,3.2-8.7,3.9-16.8,4.2c-9,0.5-9.7,0.4-15.4-2.7c-11-5.8-23.1-16.9-33.9-31.4c-5.6-7.4-7.6-10.3-14.1-20.5   c-5.9-9.5-18.4-36-22-47.2l-4-11.7h-8.6c-32.9,0-70.8,11.5-98.3,29.8C41.7,230.2,15,253.6,15,257c0,7.8,17,44.7,28.3,61.3   c8,11.9,26.3,31.7,36.4,39.6c13.1,10.1,36.9,24.5,40.6,24.5c0.5,0,4.4-3.5,8.6-7.9c9.4-9.6,31.3-27,44.8-35.6   c29-18.4,56.4-27,71.6-22.4c9.9,2.9,19.5,12.5,26.8,26.8c2.9,5.6,3.2,7.2,3.1,15.7c-0.1,9.4-2.2,20-5.2,26.1   c-2.7,5.4-10.7,12.8-16.4,15c-14.1,5.6-36.1,7.6-59.4,5.4c-17.1-1.7-43.2-7.2-59.8-12.9l-12.7-4.4l-2.2,2.6   c-7.8,9.4-21.9,33.1-27.1,45.8c-10.2,24.7-14,44.1-14.1,73.2c0,12,0.5,24,1.4,29.3l1.4,9.1l8.8,3.2c17.4,6.4,43.1,11.6,63.6,13   c8.7,0.6,28.9-0.8,40.9-3c10.7-2,32.8-9,43.4-13.8c9-4.2,8.7-3.3,6.9-16c-0.6-4.3-1-17.2-1-28.7c0-31.1,3.5-53.6,11.3-73.1   c6.5-16.2,11.4-22.5,21.4-27.8c8-4.3,31.6-3.9,40.5,0.7c6.8,3.4,19.3,16.4,23.3,24.1c0.9,1.8,2.2,6.4,2.8,10.2   c0.9,5.8,0.8,8-0.5,12.8c-2.1,7-6.4,15.7-12.4,25c-13.4,20.7-44.4,49.7-68.8,64.3l-10.2,6.2l0.6,4.3c0.9,5.7,8,26.8,12.6,37.3   c11.5,26.1,30.1,49.7,54.4,68.9c12.9,10.2,28.9,20.8,31.6,20.8s18.7-10.5,31.6-20.8c25.2-19.8,43.4-43.4,55.3-71.3   c4.7-11,10.7-29,11.7-34.9l0.6-4.3l-10.2-6.2c-24.4-14.6-55.4-43.6-68.8-64.3c-6.1-9.4-10.3-18.1-12.4-25c-1.4-4.8-1.5-7-0.5-12.8   c0.6-3.9,1.9-8.5,2.8-10.2c3.8-7.4,13.7-18,21.9-23.4c5.8-3.9,28-5.9,37-3.4c5.7,1.7,13.4,7.2,17.7,12.9   c7.8,10.5,14.9,32.6,18.1,56.7c1.9,14.3,2.3,50.1,0.6,61.9c-1.8,12.6-2.1,11.8,7,16c10.5,4.8,32.6,11.8,43.3,13.8   c12,2.2,32.2,3.7,40.9,3c20.5-1.5,46.1-6.7,63.6-13l8.8-3.2l1.4-9.1c0.7-4.9,1.4-17.6,1.4-28.3c0-28.3-3.1-46-12.5-70.3   c-5.8-15.2-22.2-43.2-29-49.6l-2.6-2.5l-12.3,4.3c-42.6,14.7-92.6,17.8-118.9,7.4c-5.6-2.2-13.7-9.6-16.4-15   c-3-6.1-5.1-16.7-5.2-26.1c-0.1-8.5,0.2-10,3.1-15.7c7.3-14.3,16.9-23.9,26.8-26.8c15.1-4.5,42.8,4.2,71.4,22.3   c13.7,8.7,35.6,26.1,45,35.7c4.2,4.4,8,7.9,8.6,7.9c3.7,0,27.4-14.4,40.6-24.5c10.1-7.8,28.4-27.7,36.4-39.6   C668,301.7,685,264.8,685,257c0-3.4-26.7-26.8-43.2-37.9c-27.6-18.4-65.4-29.8-98.3-29.8h-8.6l-3.8,11.2   c-4.4,13.3-16.1,37.6-24.4,50.9c-14.5,23.3-31,40.8-45.8,48.6c-5.7,3.1-6.5,3.2-15.4,2.7c-8.1-0.3-10.3-0.9-16.8-4.2   c-10.6-5.3-18.4-12-21.6-18.7c-5-10.4-6.5-16.4-6.5-26.9c0-9.1,0.3-10.4,3.1-15.4c12-21.9,65.3-45.6,114.2-50.9   c7.2-0.7,13.4-1.8,13.9-2.3c0.4-0.4,1.8-6.4,3-13.3c2.9-16.9,3.2-47.4,0.6-62.6c-3.1-17.7-8.6-34.2-17.3-52.2   c-8.2-17-17-31.5-19.6-32.6c-2.4-0.9-21.1,1.7-35.8,5c-40.3,9.2-70.2,26.3-98,55.9c-13.3,14.1-12.9,12.8-5.8,23.9   c3.2,5.1,6.4,10,6.9,10.9c6.6,10.7,21.1,47.5,24.8,62.9c2.4,10,4.1,26.5,3.7,35.2c-0.7,15.5-7.4,25.5-21.9,32.4   c-7.3,3.4-17.4,6.3-22.3,6.3s-15-2.8-22.3-6.3c-14.5-6.9-21.2-16.8-21.9-32.4c-0.4-8.6,1.3-25.2,3.7-35.4   c3.3-14.4,18.3-52.1,24.8-62.7c0.5-0.8,3.7-5.7,6.9-10.9c7.1-11.1,7.4-9.8-5.8-23.9c-21.6-23.1-45.4-38.9-72.9-48.7   c-16.5-5.9-47.8-12.5-59.1-12.5C201.9,23.3,199.9,24.7,198.5,26.7z" fill="#fdc48b" style=""></path><path d="M344.1,110.9c-13.5,20.6-26.7,52.5-31.7,76.6c-3,14-3.3,35.9-0.7,41.6c4.5,9.9,15.8,18,30.7,21.7c7.6,2,7.8,2,15.4,0   c10.6-2.7,19.2-7.2,24.5-13c7.1-7.7,7.9-10.4,7.8-26.1c-0.2-25.2-7.9-51.2-25-85.3c-3.8-7.5-14.1-23.8-15-23.8   C349.7,102.7,347,106.4,344.1,110.9z" fill="#fdc48b" style=""></path><path d="M170.1,192.1c1.8,7.4,8,23,14.5,35.8c18.6,37.3,45.6,67.6,63.1,71c9.9,1.9,23.1-2.6,34-11.7c5.8-4.7,8.8-9.7,11.9-19.9   c3.8-12.3,2.8-23.3-2.8-30.7c-9-12.1-30.7-25.2-56.7-34.2c-19-6.6-49.6-13-61.9-13C169.7,189.3,169.5,189.6,170.1,192.1z" fill="#fdc48b" style=""></path><path d="M512.3,190.8c-29.4,4.2-63.9,16.2-84.2,29.2c-22.5,14.6-28.1,26.6-21.7,47.4c3.1,10,6.2,15,11.9,19.7   c11,9.1,24.1,13.6,34,11.7c17.4-3.3,44.6-33.7,63-70.8c6.4-12.6,12.7-28.5,14.6-36c0.6-2.7,0.5-2.8-3.8-2.7   C523.7,189.5,517.5,190.1,512.3,190.8z" fill="#fdc48b" style=""></path><path d="M228.9,319.3c-14.3,2.7-32.4,10.1-48.3,19.6c-17.6,10.5-45.1,32.5-52.8,42.2l-3.1,4.1l12.7,4.3   c14.3,4.9,37.3,10.1,51.3,11.7c19.9,2.2,45.7,0.9,58.4-2.9c9.1-2.7,16.1-8.6,19.8-16.5c2.2-4.7,4.7-17.3,4.7-23.9   c0-12-11.6-29.6-23.4-35.7C243.2,319.5,234.6,318.3,228.9,319.3z" fill="#fdc48b" style=""></path><path d="M455.1,320.5c-12.5,4.2-26.8,24.1-26.8,37.4c0,6.6,2.5,19.2,4.7,23.9c3.8,7.9,10.7,13.8,19.8,16.5   c12.7,3.9,38.5,5.1,58.4,2.9c14.1-1.6,37-6.8,51.3-11.7l12.7-4.3l-3.1-4c-4.5-5.7-14.2-14.3-28.6-25.5   c-24.5-18.9-48.4-31.2-68.7-35.4C465.1,318.3,461.6,318.4,455.1,320.5z" fill="#fdc48b" style=""></path><path d="M285.5,403.3c-10.5,2-18,8-23.4,19.2c-6.3,12.7-9.9,24.9-13,43.8c-2.9,18.1-2.5,68.4,0.7,73.5c1.3,2.1,15.4-6.9,32-20.2   c35-28,59.5-62.4,57.2-80.4c-1.3-10.6-9.8-23.2-20.9-30.8C311.7,404.1,295.4,401.5,285.5,403.3z" fill="#fdc48b" style=""></path><path d="M402.2,402.8c-14.1,1-20.4,4.1-30.1,14.4c-6.4,6.7-10.2,14.4-11.2,22c-2.3,18,22.1,52.3,57.2,80.4   c16.6,13.4,30.8,22.3,32,20.2c3.2-5.1,3.7-55.4,0.7-73.5c-3.7-21.7-9.1-38.1-16.5-49.6C427.6,406.3,417.2,401.8,402.2,402.8z" fill="#fdc48b" style=""></path></g><desc>Created with Snap</desc><defs></defs></g><g><g transform="matrix(1.024,0,0,-1.024,0,0)"><path d="M327 0Q311 0 299 11Q288 23 288 39L288 781L366 781L366 39Q366 23 355 11Q344 0 327 0ZM604 710L51 710Q35 710 25 720Q15 730 15 745Q15 761 25 771Q35 781 51 781L604 781Q620 781 630 771Q640 761 640 745Q640 730 630 720Q620 710 604 710ZM821 337L777 337Q780 399 809 448Q839 497 886 525Q934 553 992 553Q1038 553 1063 540Q1088 527 1082 502Q1078 487 1068 482Q1059 477 1045 478Q1032 479 1015 480Q959 485 915 468Q872 452 846 418Q821 384 821 337ZM783 0Q765 0 755 10Q745 20 745 38L745 509Q745 527 755 537Q765 547 783 547Q801 547 811 537Q821 527 821 509L821 38Q821 20 811 10Q801 0 783 0ZM1451 -5Q1370 -5 1307 30Q1245 66 1209 129Q1174 192 1174 273Q1174 355 1207 417Q1241 480 1300 516Q1359 552 1436 552Q1512 552 1568 517Q1625 483 1656 422Q1687 361 1687 283Q1687 267 1677 257Q1667 248 1651 248L1226 248L1226 312L1659 312L1616 281Q1617 339 1595 385Q1573 431 1532 457Q1492 483 1436 483Q1379 483 1336 456Q1293 429 1269 381Q1246 334 1246 273Q1246 212 1272 165Q1299 118 1345 91Q1391 64 1451 64Q1487 64 1523 76Q1560 89 1582 108Q1593 117 1607 117Q1621 118 1631 110Q1644 98 1644 84Q1645 70 1633 60Q1600 32 1549 13Q1498 -5 1451 -5ZM2065 -5Q1984 -5 1921 30Q1859 66 1823 129Q1788 192 1788 273Q1788 355 1821 417Q1855 480 1914 516Q1973 552 2050 552Q2126 552 2182 517Q2239 483 2270 422Q2301 361 2301 283Q2301 267 2291 257Q2281 248 2265 248L1840 248L1840 312L2273 312L2230 281Q2231 339 2209 385Q2187 431 2146 457Q2106 483 2050 483Q1993 483 1950 456Q1907 429 1883 381Q1860 334 1860 273Q1860 212 1886 165Q1913 118 1959 91Q2005 64 2065 64Q2101 64 2137 76Q2174 89 2196 108Q2207 117 2221 117Q2235 118 2245 110Q2258 98 2258 84Q2259 70 2247 60Q2214 32 2163 13Q2112 -5 2065 -5ZM3203 0L2773 0Q2757 0 2745 11Q2734 22 2734 39L2734 742Q2734 758 2745 769Q2757 781 2773 781Q2789 781 2800 769Q2812 758 2812 742L2812 74L3203 74Q3219 74 3230 63Q3242 53 3242 37Q3242 21 3230 10Q3219 0 3203 0ZM3412 0Q3394 0 3383 10Q3373 21 3373 39L3373 508Q3373 526 3383 536Q3394 547 3412 547Q3429 547 3439 536Q3450 526 3450 508L3450 39Q3450 21 3439 10Q3429 0 3412 0ZM3411 651Q3389 651 3373 667Q3357 683 3357 706Q3357 731 3373 745Q3390 760 3412 760Q3433 760 3449 745Q3466 731 3466 706Q3466 683 3450 667Q3434 651 3411 651ZM3895 -5Q3816 -5 3753 31Q3690 68 3653 131Q3617 194 3617 274Q3617 353 3652 416Q3688 479 3749 515Q3810 552 3887 552Q3954 552 4008 523Q4062 495 4095 448L4095 742Q4095 760 4106 770Q4117 781 4134 781Q4151 781 4162 770Q4173 760 4173 742L4173 270Q4171 192 4134 129Q4098 67 4035 31Q3973 -5 3895 -5ZM3895 65Q3953 65 3998 92Q4044 120 4070 167Q4097 214 4097 274Q4097 333 4070 380Q4044 428 3998 455Q3953 482 3895 482Q3838 482 3792 455Q3746 428 3719 380Q3692 333 3692 274Q3692 214 3719 167Q3746 120 3792 92Q3838 65 3895 65ZM4594 -5Q4515 -5 4454 30Q4393 66 4358 129Q4324 192 4324 273Q4324 355 4360 418Q4396 481 4459 516Q4522 552 4602 552Q4683 552 4745 516Q4808 481 4843 418Q4879 355 4880 273L4835 249Q4835 175 4804 117Q4773 60 4718 27Q4664 -5 4594 -5ZM4604 -216Q4525 -216 4465 -187Q4405 -157 4366 -106Q4355 -94 4356 -80Q4358 -66 4371 -57Q4384 -48 4400 -51Q4416 -54 4425 -66Q4454 -102 4499 -124Q4545 -146 4605 -146Q4661 -146 4706 -119Q4751 -92 4777 -43Q4804 6 4804 72L4804 224L4833 282L4880 273L4880 69Q4880 -12 4844 -77Q4808 -141 4746 -179Q4684 -216 4604 -216ZM4602 65Q4661 65 4706 91Q4752 118 4778 165Q4804 212 4804 273Q4804 334 4778 381Q4752 429 4706 455Q4661 482 4602 482Q4543 482 4497 455Q4451 429 4425 381Q4399 334 4399 273Q4399 212 4425 165Q4451 118 4497 91Q4543 65 4602 65ZM5278 -5Q5197 -5 5134 30Q5072 66 5036 129Q5001 192 5001 273Q5001 355 5034 417Q5068 480 5127 516Q5186 552 5263 552Q5339 552 5395 517Q5452 483 5483 422Q5514 361 5514 283Q5514 267 5504 257Q5494 248 5478 248L5053 248L5053 312L5486 312L5443 281Q5444 339 5422 385Q5400 431 5359 457Q5319 483 5263 483Q5206 483 5163 456Q5120 429 5096 381Q5073 334 5073 273Q5073 212 5099 165Q5126 118 5172 91Q5218 64 5278 64Q5314 64 5350 76Q5387 89 5409 108Q5420 117 5434 117Q5448 118 5458 110Q5471 98 5471 84Q5472 70 5460 60Q5427 32 5376 13Q5325 -5 5278 -5Z" fill="#ffffff" style=""></path></g></g></g></svg>