<svg version="1.1" xmlns="http://www.w3.org/2000/svg" viewBox="0 0 250 250"><desc>Created with Snap</desc><defs></defs><g transform="matrix(0.0505,0,0,0.0505,13.452,197.8153)"><rect x="-266.23999710083007" y="-3417.8560546874996" width="4947.968359375" height="3953.4080444335937" fill='rgba(0,0,0,0)' style=""></rect><g transform="matrix(0.3463,0,0,0.3463,789.2767,-3479.6753)">
<g>
	<path d="M4420.813,2317.79c3.686-0.136,7.509,0.273,11.059,1.092c9.421,2.048,17.886,6.69,24.576,13.38l0.819,0.819
		c2.731,3.004,5.052,6.008,7.1,9.557c3.823,6.69,6.007,14.199,6.28,22.392c0.137,4.096-0.137,7.919-0.956,11.878
		c-2.048,9.421-6.69,17.886-13.38,24.576l-0.819,0.819c-3.003,2.731-6.007,5.052-9.557,7.1c-6.007,3.413-12.834,5.598-20.07,6.144
		c-191.283,18.022-376.423,45.056-555.418,80.555c59.802,88.473,155.648,161.928,284.262,213.811
		c13.653,5.598,27.443,10.65,41.097,15.565c25.532,8.875,38.912,36.727,30.037,62.259s-36.728,38.912-62.259,30.037
		c-15.838-5.598-30.993-11.196-45.329-17.067c-162.748-65.673-280.986-163.703-349.798-283.443
		c-269.517,58.982-524.698,137.216-765.406,233.199c68.403,94.754,170.394,175.309,303.513,237.158
		c53.794,24.986,112.094,46.831,174.899,65.126c25.941,7.509,40.823,34.679,33.314,60.621s-34.679,40.823-60.621,33.314
		c-68.403-20.071-131.345-43.554-188.689-70.178c-157.56-73.182-276.753-171.076-355.123-288.085
		c-236.203,100.215-457.933,217.634-664.781,350.481c126.566,209.579,341.743,382.703,636.655,501.76
		c28.672,11.605,57.617,22.528,87.108,32.768c25.532,8.875,38.912,36.727,30.037,62.259c-8.875,25.532-36.728,38.912-62.259,30.037
		c-31.539-11.059-61.986-22.528-91.341-34.406c-313.754-126.703-544.085-312.525-681.984-538.897
		c-4.642,3.14-9.421,6.281-14.063,9.557c-329.865,224.461-620.134,489.335-869.99,786.705
		c239.343,255.591,639.386,423.39,1054.72,459.298c398.131,34.406,808.414-52.838,1101.414-300.783
		c940.988-796.262,1577.643-1172.412,2068.48-1270.716c447.147-89.566,771.687,47.65,1089.673,308.429
		c-86.835-314.846-229.513-614.537-423.527-882.824c-216.132-298.735-496.025-558.694-833.672-757.624
		c-655.497-385.98-1405.338-469.811-2087.868-293.137s-1297.613,613.581-1683.593,1268.941
		c-114.552,194.697-202.615,397.858-265.148,605.389c-53.658,178.313-88.474,359.492-104.994,540.808
		c243.576-246.852,517.325-466.261,819.883-652.629c17.067-10.513,34.133-20.89,51.337-31.13
		c-76.186-229.513-70.315-487.834,25.122-760.218c8.328-23.894,17.34-47.514,26.76-70.998c10.104-25.122,38.502-37.273,63.625-27.17
		c25.122,10.103,37.274,38.502,27.17,63.625c-9.148,22.665-17.613,44.919-25.259,66.765
		c-85.197,243.302-93.525,473.225-30.993,677.615c212.446-120.422,438.135-225.144,676.932-312.525
		c-39.594-129.16-38.366-272.93,6.417-425.711c14.746-50.244,33.86-100.898,57.617-151.961
		c11.332-24.576,40.414-35.226,64.99-23.893c24.576,11.332,35.226,40.414,23.893,64.99c-21.982,47.377-39.595,93.525-52.565,138.172
		c-38.775,132.301-40.687,255.727-7.919,365.909c250.675-85.879,515.277-152.781,793.395-198.929
		c-27.853-107.725-21.299-226.509,22.255-350.891c4.233-12.151,8.738-23.893,13.38-35.499c10.104-25.122,38.502-37.274,63.625-27.17
		c25.122,10.104,37.274,38.502,27.17,63.625c-4.369,10.786-8.329,21.299-11.878,31.266
		c-38.093,108.954-43.145,211.763-17.476,303.514c195.789-28.809,398.131-47.514,606.754-55.296h0.819L4420.813,2317.79z
		 M3771.324,5874.347c-3.686,0.137-7.509-0.273-11.059-1.092c-9.421-2.048-17.886-6.69-24.576-13.38l-0.819-0.819
		c-2.731-3.004-5.052-6.008-7.1-9.558c-3.823-6.69-6.007-14.199-6.281-22.392c-0.136-4.096,0.137-7.918,0.956-11.878
		c2.048-9.421,6.69-17.886,13.38-24.576l0.819-0.819c3.004-2.73,6.008-5.052,9.557-7.1c6.008-3.414,12.834-5.598,20.07-6.144
		c191.283-18.022,376.422-45.056,555.417-80.555c-59.801-88.474-155.648-161.929-284.262-213.811
		c-13.653-5.598-27.443-10.65-41.096-15.565c-25.532-8.875-38.912-36.728-30.037-62.259c8.875-25.532,36.727-38.912,62.259-30.037
		c15.838,5.598,30.993,11.196,45.329,17.066c162.748,65.673,280.986,163.704,349.799,283.443
		c269.517-58.982,524.697-137.216,765.406-233.199c-68.403-94.754-170.394-175.309-303.514-237.158
		c-53.794-24.985-112.094-46.831-174.899-65.126c-25.941-7.509-40.824-34.679-33.314-60.621s34.68-40.824,60.621-33.314
		c68.403,20.071,131.345,43.554,188.689,70.178c157.56,73.182,276.753,171.076,355.123,288.085
		c236.203-100.215,457.933-217.634,664.781-350.481c-126.566-209.579-341.743-382.703-636.655-501.76
		c-28.672-11.605-57.617-22.528-87.108-32.768c-25.532-8.875-38.912-36.727-30.037-62.259c8.875-25.532,36.728-38.912,62.259-30.038
		c31.539,11.059,61.986,22.528,91.341,34.406c313.753,126.703,544.085,312.525,681.984,538.897
		c4.642-3.141,9.421-6.281,14.063-9.558c329.864-224.46,620.134-489.335,869.99-786.705
		c-239.343-255.59-639.386-423.39-1054.72-459.298c-398.131-34.406-808.414,52.838-1101.414,300.783
		c-940.988,796.263-1577.643,1172.412-2068.48,1270.716c-447.147,89.566-771.686-47.65-1089.672-308.429
		c86.835,314.846,229.513,614.537,423.663,882.824c216.132,298.735,496.026,558.695,833.673,757.624l0,0
		c655.496,385.98,1405.338,469.675,2087.867,293.137c682.53-176.674,1297.613-613.581,1683.593-1268.941l0.137-0.273
		c114.551-194.56,202.479-397.722,265.011-605.116c53.657-178.313,88.474-359.492,104.994-540.809
		c-243.576,246.853-517.325,466.261-819.883,652.629c-17.067,10.513-34.133,20.89-51.336,31.129
		c76.186,229.513,70.314,487.834-25.122,760.218c-8.329,23.894-17.34,47.514-26.761,70.998
		c-10.104,25.122-38.502,37.273-63.625,27.17s-37.273-38.502-27.17-63.625c9.148-22.665,17.613-44.919,25.259-66.765
		c85.197-243.303,93.525-473.225,30.993-677.615c-212.446,120.422-438.135,225.144-676.932,312.525
		c39.595,129.161,38.366,272.93-6.417,425.711c-14.746,50.244-33.86,100.898-57.617,151.961
		c-11.333,24.576-40.414,35.226-64.99,23.894c-24.576-11.333-35.226-40.414-23.894-64.99
		c21.982-47.377,39.595-93.525,52.565-138.172c38.775-132.301,40.687-255.727,7.919-365.909
		c-250.675,85.879-515.277,152.781-793.396,198.929c27.853,107.725,21.299,226.509-22.255,350.891
		c-4.232,12.151-8.738,23.893-13.38,35.499c-10.104,25.122-38.502,37.273-63.625,27.17c-25.122-10.104-37.273-38.502-27.17-63.625
		c4.369-10.786,8.329-21.299,11.878-31.266c38.093-108.954,43.145-211.763,17.476-303.514
		c-195.789,28.809-398.131,47.514-606.754,55.296h-0.819L3771.324,5874.347z M6097.169,5070.848
		c-7.373,5.052-14.746,9.967-22.118,14.882c5.052,10.24,9.831,20.617,14.473,30.993c12.015-7.236,23.893-14.473,35.771-21.845
		c696.047-428.851,1235.627-1035.605,1604.54-1753.225c-0.273-10.65-14.473-24.576-32.495-37.41
		c-14.2-10.104-30.311-18.705-45.875-25.122c-10.104-4.232-19.524-7.373-27.853-9.421
		c-164.25,346.385-367.548,669.696-608.938,962.833l-0.956,1.092c-261.461,317.304-567.433,599.381-916.685,837.086
		L6097.169,5070.848z M5992.584,5139.797c-159.334,101.99-327.271,194.97-503.535,278.255
		c179.951-73.728,351.846-157.833,515.55-251.358C6000.776,5157.683,5996.681,5148.809,5992.584,5139.797z M6974.532,4126.993
		c226.236-282.078,417.246-591.736,571.938-922.556c13.107-28.126,42.325-38.502,78.916-33.724
		c18.295,2.321,40.687,8.738,63.215,18.022c22.119,9.148,45.056,21.436,65.399,35.908c49.971,35.772,85.743,85.879,70.042,144.999
		l-1.229,4.779l-2.594,5.052c-193.741,378.334-433.903,726.63-718.438,1035.605c0.273,2.321,0.273,4.642,0.137,7.1
		c-11.605,225.553-49.971,451.243-116.463,672.154c-64.581,214.494-155.785,424.892-274.705,626.824l-3.55,6.007l-0.137,0.137
		c-399.906,675.294-1035.196,1125.717-1739.708,1307.989c-706.697,182.818-1483.162,96.12-2161.869-303.514l-6.008-3.55l0,0
		c-347.341-205.755-635.153-473.498-857.429-780.834c-232.516-321.399-393.626-685.943-476.638-1068.1
		c-5.734-26.488,11.059-52.565,37.547-58.3c16.794-3.687,33.314,1.775,44.783,12.971c334.37,304.196,658.091,477.73,1120.529,385.16
		c474.59-95.027,1097.318-464.759,2024.38-1249.143c314.709-266.24,751.206-360.312,1173.094-323.857
		c432.811,37.41,852.104,212.719,1108.924,480.87H6974.532z M2094.968,3121.425c7.373-5.052,14.746-9.967,22.118-14.882
		c-5.052-10.24-9.831-20.616-14.473-30.993c-12.015,7.236-23.893,14.473-35.908,21.845
		C1370.658,3526.246,831.078,4133,462.165,4850.62c0.273,10.65,14.473,24.576,32.495,37.41
		c14.199,10.104,30.31,18.705,45.875,25.122c10.103,4.233,19.524,7.373,27.853,9.421
		c164.25-346.385,367.548-669.696,608.939-962.833l0.819-1.092c261.461-317.303,567.433-599.381,916.685-837.086L2094.968,3121.425z
		 M2199.552,3052.476c159.334-101.99,327.271-194.97,503.535-278.255c-179.951,73.728-351.846,157.833-515.55,251.358
		C2191.36,3034.59,2195.456,3043.465,2199.552,3052.476z M1217.604,4065.28c-226.236,282.078-417.246,591.736-571.938,922.556
		c-13.107,28.125-42.189,38.502-78.916,33.724c-18.295-2.321-40.687-8.738-63.215-18.022c-22.118-9.148-45.056-21.436-65.399-35.908
		c-49.971-35.772-85.743-85.879-70.042-144.999l1.229-4.779l2.594-5.051c193.741-378.334,433.903-726.631,718.438-1035.605
		c-0.273-2.321-0.273-4.642-0.137-7.1c11.605-225.553,49.971-451.243,116.463-672.154
		c64.58-214.494,155.785-424.892,274.705-626.824c399.77-678.844,1036.698-1131.315,1743.394-1314.133
		s1483.162-96.12,2161.869,303.514c350.208,206.165,639.932,475.273,863.573,784.384
		c232.516,321.399,393.625,685.943,476.638,1068.1c5.734,26.487-11.059,52.565-37.547,58.3c-16.793,3.687-33.314-1.775-44.783-12.97
		c-334.37-304.196-658.091-477.73-1120.529-385.161c-474.59,95.027-1097.318,464.76-2024.379,1249.144
		c-314.573,266.24-751.207,360.312-1173.094,323.857C1893.717,4508.74,1474.423,4333.432,1217.604,4065.28z" fill="#82c23e" style=""></path>
</g>
<desc>Created with Snap</desc><defs></defs></g><g><g transform="matrix(1.024,0,0,-1.024,0,0)"><path d="M609 650L607 446L529 439L523 571L380 571L329 79L438 79L430 0L127 0L135 79L242 79L293 571L149 571L116 439L40 446L79 650L609 650ZM678 447L794 447L795 340Q812 386 840 421Q869 457 910 457Q937 457 963 439L948 350Q919 365 895 365Q857 365 830 333Q803 301 792 257L768 69L858 69L852 21L828 0L608 0L615 47L638 69L682 69L720 378L648 378L654 425L678 447ZM1175 59Q1222 59 1247 84Q1273 110 1286 144L1354 129Q1341 73 1291 31Q1242 -10 1162 -10Q1081 -10 1032 39Q984 88 984 186Q984 298 1046 377Q1108 456 1214 456Q1278 456 1321 425Q1364 394 1364 341Q1364 292 1327 257Q1291 222 1204 203Q1176 197 1143 191Q1110 186 1075 181Q1076 124 1099 91Q1122 59 1175 59ZM1165 252Q1236 268 1255 290Q1274 312 1274 335Q1274 366 1254 378Q1235 391 1205 391Q1143 391 1113 343Q1084 296 1077 238Q1105 242 1126 245Q1148 249 1165 252ZM1614 59Q1661 59 1686 84Q1712 110 1725 144L1793 129Q1780 73 1730 31Q1681 -10 1601 -10Q1520 -10 1471 39Q1423 88 1423 186Q1423 298 1485 377Q1547 456 1653 456Q1717 456 1760 425Q1803 394 1803 341Q1803 292 1766 257Q1730 222 1643 203Q1615 197 1582 191Q1549 186 1514 181Q1515 124 1538 91Q1561 59 1614 59ZM1604 252Q1675 268 1694 290Q1713 312 1713 335Q1713 366 1693 378Q1674 391 1644 391Q1582 391 1552 343Q1523 296 1516 238Q1544 242 1565 245Q1587 249 1604 252ZM2558 214L2516 0L2054 0L2062 79L2139 79L2191 571L2114 571L2122 650L2389 650L2381 571L2279 571L2227 79L2448 79L2482 221L2558 214ZM2782 552L2695 552L2706 655L2793 655L2782 552ZM2603 378L2609 425L2633 447L2769 447L2722 69L2792 69L2786 19L2762 0L2630 0L2675 378L2603 378ZM3132 619L3138 667L3162 688L3322 688L3245 69L3316 69L3311 19L3287 0L3166 0L3167 93Q3144 52 3105 21Q3067 -10 3009 -10Q2935 -10 2898 42Q2861 95 2861 177Q2861 237 2882 301Q2904 366 2950 411Q2997 456 3073 456Q3165 456 3199 384L3228 619L3132 619ZM3084 387Q3011 387 2981 322Q2952 257 2952 188Q2952 59 3039 59Q3091 59 3128 103Q3166 148 3176 194L3186 276Q3186 326 3156 356Q3127 387 3084 387ZM3718 376L3736 447L3874 447L3868 398L3844 378L3798 378L3753 11Q3741 -88 3689 -156Q3637 -223 3529 -223Q3463 -223 3411 -190Q3360 -157 3348 -87L3411 -55Q3423 -104 3458 -126Q3493 -148 3535 -148Q3649 -148 3669 13L3678 88Q3655 48 3617 19Q3579 -10 3523 -10Q3449 -10 3412 42Q3375 95 3375 177Q3375 237 3396 301Q3418 366 3464 411Q3511 456 3587 456Q3686 456 3718 376ZM3597 387Q3527 387 3496 322Q3466 257 3466 187Q3466 59 3552 59Q3605 59 3642 103Q3680 147 3691 193L3700 267Q3702 320 3673 353Q3644 387 3597 387ZM4083 59Q4130 59 4155 84Q4181 110 4194 144L4262 129Q4249 73 4199 31Q4150 -10 4070 -10Q3989 -10 3940 39Q3892 88 3892 186Q3892 298 3954 377Q4016 456 4122 456Q4186 456 4229 425Q4272 394 4272 341Q4272 292 4235 257Q4199 222 4112 203Q4084 197 4051 191Q4018 186 3983 181Q3984 124 4007 91Q4030 59 4083 59ZM4073 252Q4144 268 4163 290Q4182 312 4182 335Q4182 366 4162 378Q4143 391 4113 391Q4051 391 4021 343Q3992 296 3985 238Q4013 242 4034 245Q4056 249 4073 252Z" fill="#82c23e" style=""></path></g></g></g></svg>